<svg width="595.68212890625px" height="120.8px" xmlns="http://www.w3.org/2000/svg" viewBox="-47.841064453125 14.600000000000001 595.68212890625 120.8" style="background:#596886" preserveAspectRatio="xMidYMid"><defs><filter id="editing-hover" x="-100%" y="-100%" width="300%" height="300%"><feFlood flood-color="#052b4a" result="flood"></feFlood><feComposite operator="in" in2="SourceAlpha" in="flood" result="shadow"></feComposite><feOffset dx="-4" dy="-4" in="SourceGraphic" result="offset-1"></feOffset><feOffset dx="4" dy="4" in="shadow" result="offset-2"></feOffset><feMerge><feMergeNode in="offset-2"></feMergeNode><feMergeNode in="offset-1"></feMergeNode></feMerge></filter></defs><g filter="url(#editing-hover)"><g transform="translate(38.78122055530548, 99)"><path d="M26.05-29.57L26.05-29.57L26.05-29.57Q27.01-31.49 27.01-33.28L27.01-33.28L27.01-33.28Q27.01-35.07 26.82-36.06L26.82-36.06L26.82-36.06Q26.62-37.06 26.18-37.82L26.18-37.82L26.18-37.82Q25.22-39.49 23.30-39.49L23.30-39.49L23.30-39.49Q20.93-39.49 19.01-37.76L19.01-37.76L19.01-37.76Q16.96-35.97 16.96-33.15L16.96-33.15L16.96-33.15Q16.96-31.36 18.21-29.98L18.21-29.98L18.21-29.98Q19.46-28.61 21.38-27.33L21.38-27.33L21.38-27.33Q23.30-26.05 25.47-24.77L25.47-24.77L25.47-24.77Q27.65-23.49 29.57-21.95L29.57-21.95L29.57-21.95Q33.98-18.43 33.98-13.70L33.98-13.70L33.98-13.70Q33.98-10.50 32.29-7.78L32.29-7.78L32.29-7.78Q30.59-5.06 27.78-3.07L27.78-3.07L27.78-3.07Q21.63 1.28 13.50 1.28L13.50 1.28L13.50 1.28Q6.91 1.28 3.52-0.86L3.52-0.86L3.52-0.86Q0.13-3.01 0.13-6.27L0.13-6.27L0.13-6.27Q0.13-12.10 4.67-13.57L4.67-13.57L4.67-13.57Q5.95-14.02 7.90-14.02L7.90-14.02L7.90-14.02Q9.86-14.02 12.10-13.18L12.10-13.18L12.10-13.18Q11.07-10.56 11.07-8.19L11.07-8.19L11.07-8.19Q11.07-3.07 14.72-3.07L14.72-3.07L14.72-3.07Q17.09-3.07 19.04-4.80L19.04-4.80L19.04-4.80Q20.99-6.53 20.99-8.48L20.99-8.48L20.99-8.48Q20.99-10.43 19.74-11.84L19.74-11.84L19.74-11.84Q18.50-13.25 16.64-14.37L16.64-14.37L16.64-14.37Q14.78-15.49 12.64-16.58L12.64-16.58L12.64-16.58Q10.50-17.66 8.64-19.20L8.64-19.20L8.64-19.20Q4.29-22.72 4.29-28.35L4.29-28.35L4.29-28.35Q4.29-32 6.08-34.85L6.08-34.85L6.08-34.85Q7.87-37.70 10.75-39.62L10.75-39.62L10.75-39.62Q16.51-43.52 23.58-43.52L23.58-43.52L23.58-43.52Q30.66-43.52 34.08-41.41L34.08-41.41L34.08-41.41Q37.50-39.30 37.50-35.71L37.50-35.71L37.50-35.71Q37.50-32.58 35.07-30.59L35.07-30.59L35.07-30.59Q32.96-28.93 30.40-28.93L30.40-28.93L30.40-28.93Q27.84-28.93 26.05-29.57ZM59.39-2.69L59.39-2.69L59.39-2.69Q56.32 1.28 48.70 1.28L48.70 1.28L48.70 1.28Q44.74 1.28 41.86-1.12L41.86-1.12L41.86-1.12Q38.98-3.52 38.98-6.98L38.98-6.98L38.98-6.98Q38.98-8.90 39.17-9.86L39.17-9.86L43.46-32.64L56.45-33.92L51.78-9.22L51.78-9.22Q51.52-7.81 51.52-6.98L51.52-6.98L51.52-6.98Q51.52-3.26 53.76-3.26L53.76-3.26L53.76-3.26Q56.26-3.26 58.05-6.66L58.05-6.66L58.05-6.66Q58.62-7.74 58.88-9.15L58.88-9.15L63.42-32.64L76.03-33.92L71.30-8.96L71.30-8.96Q71.10-8 71.10-6.98L71.10-6.98L71.10-6.98Q71.10-5.95 71.68-4.83L71.68-4.83L71.68-4.83Q72.26-3.71 74.11-3.46L74.11-3.46L74.11-3.46Q73.73-1.92 72.38-0.90L72.38-0.90L72.38-0.90Q69.57 1.28 66.53 1.28L66.53 1.28L66.53 1.28Q63.49 1.28 61.70 0.19L61.70 0.19L61.70 0.19Q59.90-0.90 59.39-2.69ZM98.62-22.46L98.62-22.46L98.62-22.46Q99.52-24.83 99.52-26.88L99.52-26.88L99.52-26.88Q99.52-30.66 96.45-30.66L96.45-30.66L96.45-30.66Q94.85-30.66 93.54-29.22L93.54-29.22L93.54-29.22Q92.22-27.78 92.22-25.98L92.22-25.98L92.22-25.98Q92.22-24.70 93.25-23.68L93.25-23.68L93.25-23.68Q94.72-22.27 98.50-19.97L98.50-19.97L98.50-19.97Q102.27-17.66 103.71-15.78L103.71-15.78L103.71-15.78Q105.15-13.89 105.15-11.30L105.15-11.30L105.15-11.30Q105.15-8.70 103.90-6.34L103.90-6.34L103.90-6.34Q102.66-3.97 100.42-2.30L100.42-2.30L100.42-2.30Q95.62 1.28 87.94 1.28L87.94 1.28L87.94 1.28Q83.78 1.28 80.58-0.90L80.58-0.90L80.58-0.90Q77.38-3.01 77.38-5.50L77.38-5.50L77.38-5.50Q77.38-8 79.20-9.47L79.20-9.47L79.20-9.47Q81.02-10.94 83.71-10.94L83.71-10.94L83.71-10.94Q86.40-10.94 88.06-9.92L88.06-9.92L88.06-9.92Q87.23-7.81 87.23-6.40L87.23-6.40L87.23-6.40Q87.23-2.18 90.82-2.18L90.82-2.18L90.82-2.18Q92.35-2.18 93.38-3.14L93.38-3.14L93.38-3.14Q94.40-4.10 94.40-5.76L94.40-5.76L94.40-5.76Q94.40-9.02 88.90-12.48L88.90-12.48L88.90-12.48Q84.42-15.42 83.39-16.58L83.39-16.58L83.39-16.58Q81.66-18.62 81.66-21.18L81.66-21.18L81.66-21.18Q81.66-23.74 82.88-26.18L82.88-26.18L82.88-26.18Q84.10-28.61 86.34-30.34L86.34-30.34L86.34-30.34Q91.01-33.92 99.14-33.92L99.14-33.92L99.14-33.92Q103.30-33.92 105.76-32.26L105.76-32.26L105.76-32.26Q108.22-30.59 108.22-27.78L108.22-27.78L108.22-27.78Q108.22-24.96 106.53-23.36L106.53-23.36L106.53-23.36Q104.83-21.76 101.76-21.76L101.76-21.76L101.76-21.76Q99.65-21.76 98.62-22.46ZM142.78-7.10L142.78-7.10L142.78-7.10Q142.78-4.29 145.66-3.46L145.66-3.46L145.66-3.46Q144.96-1.09 142.21 0.19L142.21 0.19L142.21 0.19Q139.90 1.28 137.38 1.28L137.38 1.28L137.38 1.28Q134.85 1.28 133.54 0.61L133.54 0.61L133.54 0.61Q132.22-0.06 131.52-1.15L131.52-1.15L131.52-1.15Q130.37-2.82 130.37-5.95L130.37-5.95L130.37-5.95Q130.37-7.81 131.39-12.93L131.39-12.93L132.29-17.79L132.29-17.79Q133.38-23.36 133.38-25.41L133.38-25.41L133.38-25.41Q133.38-28.99 131.39-28.99L131.39-28.99L131.39-28.99Q128.90-28.99 127.30-25.34L127.30-25.34L127.30-25.34Q126.66-23.94 126.21-21.82L126.21-21.82L121.86 0L108.99 1.28L118.02-44.80L130.88-46.08L130.37-43.52L130.37-43.52Q128.58-33.66 127.04-30.34L127.04-30.34L127.04-30.34Q130.62-33.92 137.22-33.92L137.22-33.92L137.22-33.92Q144.19-33.92 145.47-29.31L145.47-29.31L145.47-29.31Q145.92-27.84 145.92-26.56L145.92-26.56L145.92-26.56Q145.92-25.28 145.82-24.29L145.82-24.29L145.82-24.29Q145.73-23.30 145.41-21.50L145.41-21.50L144.58-16.90L143.10-9.66L143.10-9.66Q142.78-8.19 142.78-7.10ZM166.21-3.52L166.21-3.52L166.21-3.52Q164.22 1.28 157.89 1.28L157.89 1.28L157.89 1.28Q154.62 1.28 152.58-0.96L152.58-0.96L152.58-0.96Q150.85-2.94 150.85-4.93L150.85-4.93L150.85-4.93Q150.85-10.11 153.22-20.22L153.22-20.22L155.58-32.64L168.58-33.92L164.67-13.70L164.67-13.70Q163.58-8.96 163.58-7.30L163.58-7.30L163.58-7.30Q163.58-3.65 166.21-3.52ZM156.74-41.54L156.74-41.54L156.74-41.54Q156.74-44.03 158.82-45.38L158.82-45.38L158.82-45.38Q160.90-46.72 163.90-46.72L163.90-46.72L163.90-46.72Q166.91-46.72 168.74-45.38L168.74-45.38L168.74-45.38Q170.56-44.03 170.56-41.54L170.56-41.54L170.56-41.54Q170.56-39.04 168.54-37.76L168.54-37.76L168.54-37.76Q166.53-36.48 163.52-36.48L163.52-36.48L163.52-36.48Q160.51-36.48 158.62-37.76L158.62-37.76L158.62-37.76Q156.74-39.04 156.74-41.54ZM186.94-3.52L186.94-3.52L186.94-3.52Q184.96 1.28 178.62 1.28L178.62 1.28L178.62 1.28Q175.42 1.28 173.38-0.96L173.38-0.96L173.38-0.96Q171.71-2.82 171.71-4.93L171.71-4.93L171.71-4.93Q171.71-9.73 173.95-20.22L173.95-20.22L178.62-44.80L191.62-46.08L185.41-13.70L185.41-13.70Q184.32-8.96 184.32-7.30L184.32-7.30L184.32-7.30Q184.32-3.65 186.94-3.52ZM218.62 0L204.99 0L212.29-38.91L212.99-42.24L226.69-42.24L218.62 0ZM244.61-3.78L244.61-3.78L244.61-3.78Q242.88 1.28 236.22 1.28L236.22 1.28L236.22 1.28Q231.30 1.28 227.90-4.61L227.90-4.61L227.90-4.61Q224.45-10.50 223.81-20.10L223.81-20.10L223.81-20.10Q230.85-32.96 235.71-38.27L235.71-38.27L235.71-38.27Q240.38-43.33 245.25-43.33L245.25-43.33L245.25-43.33Q247.87-43.33 249.76-41.92L249.76-41.92L249.76-41.92Q251.65-40.51 252.10-38.27L252.10-38.27L252.10-38.27Q249.92-37.38 248.90-36.67L248.90-36.67L248.90-36.67Q246.34-34.75 242.88-30.46L242.88-30.46L237.06-23.49L237.06-23.49Q235.65-21.82 235.07-21.06L235.07-21.06L235.07-21.06Q236.03-15.68 238.91-10.37L238.91-10.37L238.91-10.37Q241.66-5.31 244.61-3.78ZM270.59-2.69L270.59-2.69L270.59-2.69Q267.52 1.28 259.90 1.28L259.90 1.28L259.90 1.28Q255.94 1.28 253.06-1.12L253.06-1.12L253.06-1.12Q250.18-3.52 250.18-6.98L250.18-6.98L250.18-6.98Q250.18-8.90 250.37-9.86L250.37-9.86L254.66-32.64L267.65-33.92L262.98-9.22L262.98-9.22Q262.72-7.81 262.72-6.98L262.72-6.98L262.72-6.98Q262.72-3.26 264.96-3.26L264.96-3.26L264.96-3.26Q267.46-3.26 269.25-6.66L269.25-6.66L269.25-6.66Q269.82-7.74 270.08-9.15L270.08-9.15L274.62-32.64L287.23-33.92L282.50-8.96L282.50-8.96Q282.30-8 282.30-6.98L282.30-6.98L282.30-6.98Q282.30-5.95 282.88-4.83L282.88-4.83L282.88-4.83Q283.46-3.71 285.31-3.46L285.31-3.46L285.31-3.46Q284.93-1.92 283.58-0.90L283.58-0.90L283.58-0.90Q280.77 1.28 277.73 1.28L277.73 1.28L277.73 1.28Q274.69 1.28 272.90 0.19L272.90 0.19L272.90 0.19Q271.10-0.90 270.59-2.69ZM336.77 1.28L336.77 1.28L336.77 1.28Q329.02 1.28 329.02-4.74L329.02-4.74L329.02-4.74Q329.02-7.36 330.14-12.45L330.14-12.45L330.14-12.45Q331.26-17.54 331.65-19.58L331.65-19.58L331.65-19.58Q332.54-24.26 332.54-25.73L332.54-25.73L332.54-25.73Q332.54-28.99 330.11-28.99L330.11-28.99L330.11-28.99Q328.51-28.99 326.98-26.78L326.98-26.78L326.98-26.78Q325.44-24.58 324.74-20.16L324.74-20.16L320.77 0L308.29 1.28L311.74-16.13L311.74-16.13Q312.32-19.01 312.83-22.27L312.83-22.27L312.83-22.27Q313.34-25.54 313.34-26.05L313.34-26.05L313.34-26.05Q313.34-28.99 311.17-28.99L311.17-28.99L311.17-28.99Q309.70-28.99 308.10-26.82L308.10-26.82L308.10-26.82Q306.50-24.64 305.60-20.16L305.60-20.16L301.70 0L289.09 1.28L295.81-32.64L306.24-33.92L305.15-27.46L305.15-27.46Q306.82-30.91 309.89-32.42L309.89-32.42L309.89-32.42Q312.96-33.92 317.76-33.92L317.76-33.92L317.76-33.92Q320.51-33.92 322.30-32.58L322.30-32.58L322.30-32.58Q324.10-31.23 324.67-29.06L324.67-29.06L324.67-29.06Q325.76-31.30 328.54-32.61L328.54-32.61L328.54-32.61Q331.33-33.92 334.75-33.92L334.75-33.92L334.75-33.92Q338.18-33.92 339.87-33.18L339.87-33.18L339.87-33.18Q341.57-32.45 342.59-31.23L342.59-31.23L342.59-31.23Q344.32-28.99 344.32-24.90L344.32-24.90L344.32-24.90Q344.32-20.86 342.59-12.48L342.59-12.48L342.59-12.48Q341.70-8.38 341.70-6.88L341.70-6.88L341.70-6.88Q341.70-5.38 342.56-4.48L342.56-4.48L342.56-4.48Q343.42-3.58 344.70-3.46L344.70-3.46L344.70-3.46Q344.06-1.28 341.86 0L341.86 0L341.86 0Q339.65 1.28 336.77 1.28ZM352.42-1.92L352.42-1.92L352.42-1.92Q350.91-3.58 350.24-6.21L350.24-6.21L350.24-6.21Q349.57-8.83 349.57-13.12L349.57-13.12L349.57-13.12Q349.57-17.41 351.04-21.31L351.04-21.31L351.04-21.31Q352.51-25.22 355.20-28.03L355.20-28.03L355.20-28.03Q360.70-33.92 369.79-33.92L369.79-33.92L369.79-33.92Q373.06-33.92 375.42-32.83L375.42-32.83L386.37-33.92L381.63-8.96L381.63-8.96Q381.44-8.19 381.44-6.78L381.44-6.78L381.44-6.78Q381.44-5.38 382.30-4.48L382.30-4.48L382.30-4.48Q383.17-3.58 384.45-3.46L384.45-3.46L384.45-3.46Q383.81-1.28 381.47 0L381.47 0L381.47 0Q379.14 1.28 376.51 1.28L376.51 1.28L376.51 1.28Q373.89 1.28 372.13 0.29L372.13 0.29L372.13 0.29Q370.37-0.70 369.86-2.37L369.86-2.37L369.86-2.37Q368.83-0.77 366.66 0.26L366.66 0.26L366.66 0.26Q364.48 1.28 361.57 1.28L361.57 1.28L361.57 1.28Q358.66 1.28 356.29 0.51L356.29 0.51L356.29 0.51Q353.92-0.26 352.42-1.92ZM365.92-27.90L365.92-27.90L365.92-27.90Q365.18-26.75 364.54-24.80L364.54-24.80L364.54-24.80Q363.90-22.85 362.85-17.63L362.85-17.63L362.85-17.63Q361.79-12.42 361.79-8.70L361.79-8.70L361.79-8.70Q361.79-4.99 362.37-3.90L362.37-3.90L362.37-3.90Q362.94-2.82 363.97-2.82L363.97-2.82L363.97-2.82Q366.02-2.82 367.52-4.77L367.52-4.77L367.52-4.77Q369.02-6.72 369.60-10.18L369.60-10.18L372.99-28.93L372.99-28.93Q371.65-30.08 370.08-30.08L370.08-30.08L370.08-30.08Q368.51-30.08 367.58-29.57L367.58-29.57L367.58-29.57Q366.66-29.06 365.92-27.90ZM409.86-17.98L409.86-17.98L409.86-17.98Q412.16-22.08 412.16-26.24L412.16-26.24L412.16-26.24Q412.16-28.99 410.18-28.99L410.18-28.99L410.18-28.99Q408.64-28.99 407.04-26.37L407.04-26.37L407.04-26.37Q405.38-23.74 404.86-20.35L404.86-20.35L401.54 0L388.29 1.28L394.82-32.64L405.38-33.92L404.22-27.46L404.22-27.46Q407.36-33.92 414.40-33.92L414.40-33.92L414.40-33.92Q418.11-33.92 420.13-32L420.13-32L420.13-32Q422.14-30.08 422.14-26.14L422.14-26.14L422.14-26.14Q422.14-22.21 419.55-19.71L419.55-19.71L419.55-19.71Q416.96-17.22 412.54-17.22L412.54-17.22L412.54-17.22Q410.62-17.22 409.86-17.98Z" fill="#ffd5af"></path></g></g><style>text {
  font-size: 64px;
  font-family: Arial Black;
  dominant-baseline: central;
  text-anchor: middle;
}</style></svg>